<svg version="1.2" xmlns="http://www.w3.org/2000/svg" viewBox="0 0 586 108" width="559" height="103">
	<title>Klientomat_logo_path</title>
	<defs>
		<linearGradient id="g1" x2="1" gradientUnits="userSpaceOnUse" gradientTransform="matrix(-41.895,53.697,-17.123,-13.36,101.104,29.322)">
			<stop offset="0" stop-color="#21d0fb"/>
			<stop offset="1" stop-color="#1836e7"/>
		</linearGradient>
		<linearGradient id="g2" x2="1" gradientUnits="userSpaceOnUse" gradientTransform="matrix(27.904,78.227,-49.973,17.826,100.463,-19.6)">
			<stop offset="0" stop-color="#21d0fb"/>
			<stop offset="1" stop-color="#1836e7"/>
		</linearGradient>
		<linearGradient id="g3" x2="1" gradientUnits="userSpaceOnUse" gradientTransform="matrix(18.325,-4.094,13.039,58.364,-0.318,-42.665)">
			<stop offset="0" stop-color="#574ae9" stop-opacity="0"/>
			<stop offset=".856" stop-color="#1843eb" stop-opacity=".702"/>
		</linearGradient>
	</defs>
	<style>
		.s0 { fill: #0e284f } 
		.s1 { fill: url(#g1) } 
		.s2 { fill: url(#g2) } 
		.s3 { fill: url(#g3) } 
	</style>
	<g id="Group 1">
		<path id="&lt;Path&gt;" class="s0" d="m147.4 29.7h-15.7l-18.1 21.7v-35.1h-11.3v65.4h11.3v-21.4l18.5 21.4h15.3l-24-26z"/>
		<path id="&lt;Path&gt;" class="s0" d="m152 16.3h11.5v65.4h-11.5z"/>
		<path id="&lt;Path&gt;" class="s0" d="m174.7 29.7h11.5v52h-11.5z"/>
		<path id="&lt;Path&gt;" class="s0" d="m180.5 10.4c-4.1 0-7.3 3.1-7.3 7.2 0 4 3.2 7.1 7.3 7.1 4 0 7.2-3.1 7.2-7.1 0-4.1-3.2-7.2-7.2-7.2z"/>
		<path id="&lt;Compound Path&gt;" fill-rule="evenodd" class="s0" d="m245.8 54.5c0 1.9-0.1 3.6-0.4 5.2v0.4h-39.7c0.8 7.8 6.5 12.8 14.4 12.8 5.6 0 9.7-2.4 12-7l0.1-0.2h12.3l-0.1 0.5c-3.3 10.1-12.6 16.4-24.3 16.4-15.5 0-26.4-11.1-26.4-26.9 0-16.1 10.6-26.8 26.4-26.8 15.1 0 25.7 10.5 25.7 25.6zm-12-3.8c-0.4-7.2-6.1-12.1-14.2-12.1-7.2 0-12.6 4.7-13.8 12.1z"/>
		<path id="&lt;Path&gt;" class="s0" d="m280 28.9c-5.9 0-11.5 2.2-15.1 6.1v-5.3h-11.5v52h11.5v-29c0-8.8 4.6-13.9 12.8-13.9 8 0 12.6 5.1 12.6 13.9v29h11.5v-30.6c0-13.7-8.4-22.2-21.8-22.2z"/>
		<path id="&lt;Path&gt;" class="s0" d="m324.3 17h-11.7v12.7h-6.1v9.4h6.1v28c0 9.9 5.1 14.6 15.4 14.6h8.9v-9.6h-7c-4.2 0-5.6-1.3-5.6-5v-28h12.6v-9.4h-12.6z"/>
		<path id="&lt;Compound Path&gt;" fill-rule="evenodd" class="s0" d="m394.2 55.7c0 15.6-11.5 26.9-27.4 26.9-15.6 0-26.5-11.1-26.5-26.9 0-15.6 11.3-26.8 27-26.8 15.6 0 26.9 11.2 26.9 26.8zm-11.8 0c0-11.7-7.7-16.9-15.3-16.9-7 0-15.1 4.4-15.1 16.9 0 12.5 8 16.9 14.8 16.9 7.5 0 15.6-5.3 15.6-16.9z"/>
		<path id="&lt;Path&gt;" class="s0" d="m465.3 28.9c-7.6 0-14.8 3.9-18.2 9.7-3.6-6.2-10.4-9.7-18.7-9.7-5.9 0-11.4 2.2-15 6.1v-5.3h-11.6v52h11.6v-29c0-8.8 4.6-13.9 12.7-13.9 8.1 0 12.7 5.1 12.7 13.9v29h11.4v-29c0-8.8 4.7-13.9 12.8-13.9 8 0 12.7 5.1 12.7 13.9v29h11.4v-30.6c0-13.5-8.6-22.2-21.8-22.2z"/>
		<path id="&lt;Compound Path&gt;" fill-rule="evenodd" class="s0" d="m536.8 29.7h11.6v52h-11.6v-6.9c-4.1 4.9-10.7 7.8-17.9 7.8-14.1 0-24.7-11.7-24.7-27.1 0-15.4 10.5-26.6 24.9-26.6 9.7 0 15.3 4.8 17.7 7.6zm0 25.9c0-11-7.7-16.8-15.4-16.8-7.7 0-15.4 5.7-15.4 16.7 0 11.1 7.9 17.1 15.4 17.1 7.7 0 15.4-5.8 15.4-17z"/>
		<path id="&lt;Path&gt;" class="s0" d="m585.6 39.1v-9.4h-12.7v-12.7h-11.6v12.7h-6.2v9.4h6.2v28c0 9.9 5 14.6 15.4 14.6h8.9v-9.6h-7c-4.2 0-5.7-1.3-5.7-5v-28z"/>
	</g>
	<g id="&lt;Group&gt;">
		<path id="&lt;Path&gt;" class="s1" d="m82.7 2.1c0.6 0 0.9 0.7 0.5 1.2l-39.8 50.7-1-1.2-7.4-8.9-3.9-4.7-1.1-1.4 29.4-35.4c0.1-0.2 0.3-0.3 0.6-0.3z"/>
		<path id="&lt;Compound Path&gt;" class="s2" d="m43.4 54l-1-1.2-7.4-8.9-3.9-4.7-1.1-1.4-0.3-0.3-27.5-33.2-1.8-2.1v105.4c0 0.3 0.4 0.4 0.6 0.2l25.5-32.4 59.7 31.9c0.5 0.3 1-0.3 0.6-0.7z"/>
		<path id="&lt;Path&gt;" class="s3" d="m0.4 2.2l26.1 73.2-25.5 32.4c-0.2 0.2-0.6 0.1-0.6-0.2z"/>
	</g>
</svg>