<svg id="Layer_1" data-name="Layer 1" xmlns="http://www.w3.org/2000/svg" xmlns:xlink="http://www.w3.org/1999/xlink" viewBox="0 0 800 800"><defs><style>.cls-1{fill:#0e284f;}.cls-2{fill:url(#linear-gradient);}.cls-3{fill:url(#linear-gradient-2);}.cls-4{fill:url(#linear-gradient-3);}</style><linearGradient id="linear-gradient" x1="176.76" y1="348.7" x2="139.72" y2="396.18" gradientUnits="userSpaceOnUse"><stop offset="0" stop-color="#21d0fb"/><stop offset="1" stop-color="#1836e7"/></linearGradient><linearGradient id="linear-gradient-2" x1="116.95" y1="357.62" x2="144.72" y2="435.47" xlink:href="#linear-gradient"/><linearGradient id="linear-gradient-3" x1="117.22" y1="397.91" x2="129.48" y2="395.17" gradientUnits="userSpaceOnUse"><stop offset="0" stop-color="#574ae9" stop-opacity="0"/><stop offset="0.86" stop-color="#1843eb" stop-opacity="0.7"/></linearGradient></defs><polygon class="cls-1" points="254.42 374.66 238.69 374.66 220.63 396.43 220.63 361.32 209.28 361.32 209.28 426.68 220.63 426.68 220.63 405.26 239.07 426.68 254.42 426.68 230.44 400.72 254.42 374.66"/><rect class="cls-1" x="258.98" y="361.32" width="11.52" height="65.41"/><rect class="cls-1" x="281.65" y="374.71" width="11.52" height="52.02"/><path class="cls-1" d="M287.51,355.39a7.17,7.17,0,1,0,7.18,7.17A7.14,7.14,0,0,0,287.51,355.39Z"/><path class="cls-1" d="M327.1,373.88c-15.77,0-26.37,10.77-26.37,26.8,0,15.83,10.84,26.89,26.37,26.89,11.66,0,21-6.27,24.27-16.36l.16-.49H339.16l-.11.21c-2.29,4.62-6.31,7-11.95,7-7.94,0-13.56-5-14.43-12.84h39.7l.05-.32a31.49,31.49,0,0,0,.39-5.26C352.81,384.4,342.24,373.88,327.1,373.88Zm-14.31,21.86c1.21-7.42,6.6-12.18,13.84-12.18,8,0,13.8,5,14.17,12.18Z"/><path class="cls-1" d="M387,373.88A20.86,20.86,0,0,0,371.89,380v-5.26H360.36v52h11.53v-29c0-8.81,4.65-13.86,12.76-13.86s12.67,5.05,12.67,13.86v29h11.43V396.12C408.75,382.4,400.42,373.88,387,373.88Z"/><path class="cls-1" d="M431.25,362H419.64v12.74h-6.15v9.4h6.15v28c0,9.83,5,14.61,15.4,14.61h8.88v-9.59h-7c-4.19,0-5.68-1.31-5.68-5v-28h12.67v-9.4H431.25Z"/><path class="cls-1" d="M474.25,373.88c-15.61,0-26.93,11.27-26.93,26.8,0,15.83,10.88,26.89,26.46,26.89,15.88,0,27.41-11.31,27.41-26.89S489.86,373.88,474.25,373.88Zm-.47,43.73c-6.81,0-14.75-4.44-14.75-16.93s8.1-16.84,15-16.84c7.63,0,15.32,5.2,15.32,16.84S481.29,417.61,473.78,417.61Z"/><path class="cls-1" d="M572.26,373.88c-7.61,0-14.8,3.88-18.15,9.74-3.62-6.2-10.4-9.74-18.71-9.74a20.73,20.73,0,0,0-15,6.09v-5.26H508.84v52h11.52v-29c0-8.81,4.65-13.86,12.77-13.86s12.67,5.05,12.67,13.86v29h11.43v-29c0-8.81,4.65-13.86,12.76-13.86s12.67,5.05,12.67,13.86v29h11.43V396.12C594.09,382.61,585.52,373.88,572.26,373.88Z"/><path class="cls-1" d="M643.81,381.48c-2.42-2.79-8-7.6-17.68-7.6-14.46,0-25,11.19-25,26.61s10.64,27.08,24.76,27.08a23.35,23.35,0,0,0,17.87-7.78v6.94h11.62v-52H643.81ZM628.4,417.61c-7.47,0-15.41-6-15.41-17.12,0-10.93,7.75-16.65,15.41-16.65s15.41,5.78,15.41,16.84S636.06,417.61,628.4,417.61Z"/><path class="cls-1" d="M692.56,384.11v-9.4H679.9V362H668.28v12.74h-6.14v9.4h6.14v28c0,9.83,5,14.61,15.4,14.61h8.88v-9.59h-7c-4.19,0-5.67-1.31-5.67-5v-28Z"/><path class="cls-2" d="M189.66,347.11a.75.75,0,0,1,.59,1.21L150.36,399l-1-1.2L142,388.94l-3.92-4.74L137,382.81l29.43-35.43a.76.76,0,0,1,.58-.27Z"/><path class="cls-3" d="M150.36,399l-1-1.2L142,388.94l-3.92-4.74L137,382.81l-.29-.35L109.2,349.33l-1.76-2.12V452.57a.32.32,0,0,0,.57.2l25.45-32.33h0l59.76,31.89a.49.49,0,0,0,.61-.75Z"/><path class="cls-4" d="M107.44,347.21l26,73.23L108,452.77a.32.32,0,0,1-.57-.2Z"/></svg>