<svg xmlns="http://www.w3.org/2000/svg" fill-rule="evenodd" stroke-linejoin="round" stroke-miterlimit="2" clip-rule="evenodd" viewBox="0 0 24 24" id="SendEmail">
  <path d="M2 9.75h3a.75.75 0 0 0 0-1.5H2a.75.75 0 0 0 0 1.5zm1 3h2a.75.75 0 0 0 0-1.5H3a.75.75 0 0 0 0 1.5zm18.345 0H8.786l-2.115 4.231a1.749 1.749 0 0 0 2.348 2.348l11.528-5.764a1.75 1.75 0 0 0 .798-.815zm-12.559-1.5h12.559a1.75 1.75 0 0 0-.798-.815A61850.72 61850.72 0 0 1 9.019 4.671a1.749 1.749 0 0 0-2.348 2.348l2.115 4.231zM4 15.75h1a.75.75 0 0 0 0-1.5H4a.75.75 0 0 0 0 1.5z" fill="#00235f" class="color000000 svgShape"></path>
</svg>