<svg id="Layer_1" data-name="Layer 1" xmlns="http://www.w3.org/2000/svg" xmlns:xlink="http://www.w3.org/1999/xlink" viewBox="0 0 800 800"><defs><style>.cls-1{fill:url(#linear-gradient);}.cls-2{fill:url(#linear-gradient-2);}.cls-3{fill:url(#linear-gradient-3);}</style><linearGradient id="linear-gradient" x1="492.56" y1="217.82" x2="361.02" y2="386.42" gradientUnits="userSpaceOnUse"><stop offset="0" stop-color="#21d0fb"/><stop offset="1" stop-color="#1836e7"/></linearGradient><linearGradient id="linear-gradient-2" x1="280.17" y1="249.5" x2="378.79" y2="525.97" xlink:href="#linear-gradient"/><linearGradient id="linear-gradient-3" x1="281.1" y1="392.56" x2="324.64" y2="382.83" gradientUnits="userSpaceOnUse"><stop offset="0" stop-color="#574ae9" stop-opacity="0"/><stop offset="0.86" stop-color="#1843eb" stop-opacity="0.7"/></linearGradient></defs><path class="cls-1" d="M538.36,212.17a2.67,2.67,0,0,1,2.1,4.32L398.79,396.41l-3.55-4.27-26-31.42-13.92-16.83L351.2,339,455.73,213.14a2.68,2.68,0,0,1,2-1Z"/><path class="cls-2" d="M398.79,396.41l-3.55-4.27-26-31.42-13.92-16.83L351.2,339l-1-1.24L252.63,220.06l-6.25-7.53V586.68a1.14,1.14,0,0,0,2,.71l90.37-114.81h0L551.05,585.82a1.74,1.74,0,0,0,2.16-2.65Z"/><path class="cls-3" d="M246.38,212.53l92.4,260L248.41,587.39a1.14,1.14,0,0,1-2-.71Z"/></svg>