<svg xmlns="http://www.w3.org/2000/svg" enable-background="new 0 0 24 24" viewBox="0 0 24 24" id="Target">
  <path d="M21,11h-1.1c-0.5-3.6-3.3-6.5-6.9-6.9V3c0-0.6-0.4-1-1-1s-1,0.4-1,1v1.1C7.4,4.5,4.5,7.4,4.1,11H3c-0.6,0-1,0.4-1,1
	s0.4,1,1,1h1.1c0.5,3.6,3.3,6.5,6.9,6.9V21c0,0.6,0.4,1,1,1s1-0.4,1-1v-1.1c3.6-0.5,6.5-3.3,6.9-6.9H21c0.6,0,1-0.4,1-1
	S21.6,11,21,11z M12,18c-3.3,0-6-2.7-6-6s2.7-6,6-6s6,2.7,6,6C18,15.3,15.3,18,12,18z M12,9c-1.7,0-3,1.3-3,3s1.3,3,3,3s3-1.3,3-3
	C15,10.3,13.7,9,12,9z" fill="#00235f" class="color000000 svgShape"></path>
</svg>